<svg xmlns="http://www.w3.org/2000/svg" width="156" height="53.001" viewBox="0 0 156 53.001">
  <path id="Sustracción_2" data-name="Sustracción 2" d="M-2864,53h-156V0h156V53Zm-20.95-39.17V38.607h5.088V13.831Zm-43.8,0V38.607h5.087V13.831Zm-45.193,0V38.607h5.088V13.831Zm64.048,19.221h11.11l2.323,5.553h5.365l-10.832-24.774h-4.755l-10.8,24.774h5.3l2.291-5.552Zm-48.789-19.221V38.605h11.941c3.04,0,5.4-.6,7-1.771a5.99,5.99,0,0,0,2.484-5.126,6.6,6.6,0,0,0-1.2-4.02,6.459,6.459,0,0,0-2.516-2.028,5.937,5.937,0,0,0,1.675-1.854,6.579,6.579,0,0,0,.847-3.35,5.793,5.793,0,0,0-2.377-4.886,10.874,10.874,0,0,0-6.574-1.739Zm-45.192,0V38.605h11.941c3.04,0,5.4-.6,7-1.771a5.989,5.989,0,0,0,2.484-5.126,6.6,6.6,0,0,0-1.2-4.02,6.445,6.445,0,0,0-2.516-2.028,5.858,5.858,0,0,0,1.675-1.854,6.58,6.58,0,0,0,.85-3.35,5.79,5.79,0,0,0-2.38-4.886,10.86,10.86,0,0,0-6.574-1.739Zm56.866,20.507h-6.59V28.182h6.59c3.115,0,4.63,1.007,4.63,3.077S-2943.89,34.339-2947.005,34.339Zm-45.192,0h-6.59V28.182h6.59c3.115,0,4.63,1.007,4.63,3.077S-2989.082,34.339-2992.2,34.339Zm91.664-5.557h-7.578l3.776-9.105,3.8,9.1Zm-47.334-4.835h-5.728V18.1h5.728a5.622,5.622,0,0,1,3.25.773,2.473,2.473,0,0,1,1.049,2.169,2.446,2.446,0,0,1-1.049,2.137A5.642,5.642,0,0,1-2947.867,23.947Zm-45.193,0h-5.727V18.1h5.727a5.617,5.617,0,0,1,3.25.773,2.471,2.471,0,0,1,1.05,2.169,2.445,2.445,0,0,1-1.05,2.137A5.638,5.638,0,0,1-2993.06,23.947Z" transform="translate(3020)"/>
</svg>
